<svg xmlns="http://www.w3.org/2000/svg" width="200" height="200" viewBox="0 0 200 200">
  <g fill="none" fill-rule="evenodd">
    <path fill="#050608" d="M100,200 C176.657046,200 200,176.657046 200,100 C200,23.3429536 176.657046,0 100,0 C23.3429536,0 4.69389033e-15,23.3429536 0,100 C0,176.657046 23.3429536,200 100,200 Z"/>
    <path fill="#4FA3F7" d="M143.187181,140.998125 C160.380434,140.998125 174.285714,126.767194 174.285714,109.252896 C174.285714,91.7385967 160.380434,77.5076657 143.187181,77.5076657 C125.993928,77.5076657 112.088648,91.7385967 112.088648,109.252896 C112.088648,126.767194 125.993928,140.998125 143.187181,140.998125 Z M143.187181,121.575594 C136.599325,121.575594 131.226207,116.076641 131.226207,109.252896 C131.226207,102.42915 136.599325,96.9301971 143.187181,96.9301971 C149.775037,96.9301971 155.148155,102.42915 155.148155,109.252896 C155.148155,116.076641 149.775037,121.575594 143.187181,121.575594 Z"/>
    <path fill="#46E889" d="M43.0315169,125.973319 C43.0315169,151.059454 62.9345208,171.428571 87.5263414,171.428571 C96.294246,171.428571 104.706507,168.822961 111.890255,164.013493 C116.301577,161.060144 117.518625,155.036648 114.608609,150.559638 C111.698592,146.082628 105.763475,144.847457 101.352153,147.800805 C97.2703999,150.53351 92.5163098,152.00604 87.5263414,152.00604 C73.539918,152.00604 62.1690759,140.368901 62.1690759,125.973319 C62.1690759,120.609935 57.8849874,116.262054 52.6002964,116.262054 C47.3156054,116.262054 43.0315169,120.609935 43.0315169,125.973319 Z"/>
    <path fill="#F75D4F" d="M90.6159851 92.2836565L124.387153 58.1017452C129.049978 53.3822081 129.049978 45.7303266 124.387153 41.0107896 119.724328 36.2912525 112.164394 36.2912525 107.501569 41.0107896L73.7304011 75.1927009C69.0675758 79.9122379 69.0675758 87.5641194 73.7304011 92.2836565 78.3932263 97.0031936 85.9531598 97.0031936 90.6159851 92.2836565zM48.9541316 83.3839483L82.7252997 49.202037C87.3881249 44.4824999 87.3881249 36.8306185 82.7252997 32.1110814 78.0624744 27.3915443 70.5025409 27.3915443 65.8397156 32.1110814L32.0685475 66.2929927C27.4057223 71.0125298 27.4057223 78.6644112 32.0685475 83.3839483 36.7313728 88.1034854 44.2913063 88.1034854 48.9541316 83.3839483z"/>
  </g>
</svg>
