<svg xmlns="http://www.w3.org/2000/svg" width="146" height="38" viewBox="0 0 146 38">
  <g fill="none">
    <path fill="#050608" d="M19,38 C33.5648387,38 38,33.5648387 38,19 C38,4.43516118 33.5648387,0 19,0 C4.43516118,0 0,4.43516118 0,19 C0,33.5648387 4.43516118,38 19,38 Z"/>
    <path fill="#4FA3F7" d="M27.2055644,26.7896437 C30.4722825,26.7896437 33.1142857,24.0857669 33.1142857,20.7580502 C33.1142857,17.4303334 30.4722825,14.7264565 27.2055644,14.7264565 C23.9388463,14.7264565 21.2968431,17.4303334 21.2968431,20.7580502 C21.2968431,24.0857669 23.9388463,26.7896437 27.2055644,26.7896437 Z M27.2055644,23.0993629 C25.9538717,23.0993629 24.9329793,22.0545618 24.9329793,20.7580502 C24.9329793,19.4615385 25.9538717,18.4167374 27.2055644,18.4167374 C28.457257,18.4167374 29.4781495,19.4615385 29.4781495,20.7580502 C29.4781495,22.0545618 28.457257,23.0993629 27.2055644,23.0993629 Z"/>
    <path fill="#46E889" d="M8.17598821,23.9349306 C8.17598821,28.7012963 11.957559,32.5714285 16.6300049,32.5714285 C18.2959067,32.5714285 19.8942363,32.0763626 21.2591485,31.1625637 C22.0972996,30.6014274 22.3285387,29.4569631 21.7756357,28.6063312 C21.2227325,27.7556993 20.0950603,27.5210168 19.2569091,28.082153 C18.481376,28.6013669 17.5780989,28.8811476 16.6300049,28.8811476 C13.9725844,28.8811476 11.8121244,26.6700912 11.8121244,23.9349306 C11.8121244,22.9158876 10.9981476,22.0897903 9.99405632,22.0897903 C8.98996503,22.0897903 8.17598821,22.9158876 8.17598821,23.9349306 Z"/>
    <path fill="#F75D4F" d="M17.2170372,17.5338947 L23.6335591,11.0393316 C24.5194958,10.1426195 24.5194958,8.68876205 23.6335591,7.79205002 C22.7476223,6.89533797 21.3112349,6.89533797 20.4252981,7.79205002 L14.0087762,14.2866132 C13.1228394,15.1833252 13.1228394,16.6371827 14.0087762,17.5338947 C14.894713,18.4306068 16.3311004,18.4306068 17.2170372,17.5338947 Z M9.301285,15.8429502 L15.7178069,9.34838703 C16.6037437,8.45167498 16.6037437,6.99781752 15.7178069,6.10110547 C14.8318701,5.20439342 13.3954828,5.20439342 12.509546,6.10110547 L6.09302402,12.5956686 C5.20708724,13.4923807 5.20708724,14.9462381 6.09302402,15.8429502 C6.97896083,16.7396622 8.4153482,16.7396622 9.301285,15.8429502 Z"/>
    <path fill="#050608" d="M52.4046283,25.0271523 L51.6683029,27.1688742 C51.4326776,27.8779285 51.1160609,28.4194242 50.7184432,28.7933775 C50.3208255,29.1673308 49.8569451,29.3543046 49.3267882,29.3543046 C48.6493655,29.3543046 48.0922182,29.1333355 47.6553296,28.6913907 C47.218441,28.2494459 47,27.6933808 47,27.0231788 C47,26.7512128 47.0196351,26.4986767 47.058906,26.2655629 C47.0981769,26.0324492 47.1570824,25.8187648 47.2356241,25.6245033 L52.8169705,10.6324503 C53.2194971,9.55429925 53.7226478,8.76269568 54.3264376,8.25761589 C54.9302274,7.75253611 55.6739086,7.5 56.5575035,7.5 C57.3920098,7.5 58.1160558,7.74039495 58.7296634,8.22119205 C59.343271,8.70198916 59.8169689,9.39889168 60.1507714,10.3119205 L65.5848527,25.5516556 C65.6928477,25.872187 65.7738426,26.1587184 65.8278401,26.4112583 C65.8818376,26.6637982 65.9088359,26.8871955 65.9088359,27.081457 C65.9088359,27.751659 65.6830317,28.2980111 65.2314165,28.7205298 C64.7798014,29.1430485 64.2005645,29.3543046 63.4936886,29.3543046 C62.8653545,29.3543046 62.3425687,29.1600461 61.9253156,28.7715232 C61.5080624,28.3830003 61.1767193,27.7905117 60.9312763,26.9940397 L60.3274895,25.0271523 L52.4046283,25.0271523 Z M53.7889201,20.5688742 L58.9137447,20.5688742 L56.4396914,12.7013245 L53.7889201,20.5688742 Z M68.3462833,25.7993377 L68.3462833,16.3437086 C68.3462833,15.1878529 68.5401804,14.3306871 68.9279804,13.7721854 C69.3157803,13.2136837 69.9121979,12.9344371 70.7172511,12.9344371 C71.1983194,12.9344371 71.6253838,13.0582769 71.9984572,13.3059603 C72.3715306,13.5536436 72.7004193,13.9300195 72.9851332,14.4350993 C73.4760193,13.9105934 73.9963507,13.5147916 74.5461431,13.2476821 C75.0959354,12.9805726 75.6506283,12.8470199 76.2102384,12.8470199 C76.8680257,12.8470199 77.4349906,13.0777019 77.9111501,13.5390728 C78.3873095,14.0004438 78.6253857,14.546796 78.6253857,15.1781457 C78.6253857,16.1203138 77.7516216,16.9070609 76.0040673,17.5384106 C75.3757332,17.7618113 74.9044896,17.9463569 74.5903226,18.092053 C73.9914416,18.3737321 73.5938299,18.686974 73.3974755,19.0317881 C73.201121,19.3766022 73.1029453,20.0006577 73.1029453,20.9039735 L73.1029453,25.7993377 C73.1029453,26.9551934 72.9065938,27.8147875 72.513885,28.3781457 C72.1211762,28.9415039 71.5223042,29.2231788 70.7172511,29.2231788 C69.9121979,29.2231788 69.3157803,28.9415039 68.9279804,28.3781457 C68.5401804,27.8147875 68.3462833,26.9551934 68.3462833,25.7993377 Z M80.6652174,25.7993377 L80.6652174,16.3437086 C80.6652174,15.1878529 80.8591145,14.3306871 81.2469144,13.7721854 C81.6347144,13.2136837 82.231132,12.9344371 83.0361851,12.9344371 C83.5172535,12.9344371 83.9443179,13.0582769 84.3173913,13.3059603 C84.6904647,13.5536436 85.0193534,13.9300195 85.3040673,14.4350993 C85.7949534,13.9105934 86.3152848,13.5147916 86.8650771,13.2476821 C87.4148695,12.9805726 87.9695624,12.8470199 88.5291725,12.8470199 C89.1869598,12.8470199 89.7539247,13.0777019 90.2300842,13.5390728 C90.7062436,14.0004438 90.9443198,14.546796 90.9443198,15.1781457 C90.9443198,16.1203138 90.0705557,16.9070609 88.3230014,17.5384106 C87.6946673,17.7618113 87.2234237,17.9463569 86.9092567,18.092053 C86.3103757,18.3737321 85.912764,18.686974 85.7164095,19.0317881 C85.5200551,19.3766022 85.4218794,20.0006577 85.4218794,20.9039735 L85.4218794,25.7993377 C85.4218794,26.9551934 85.2255279,27.8147875 84.8328191,28.3781457 C84.4401102,28.9415039 83.8412382,29.2231788 83.0361851,29.2231788 C82.231132,29.2231788 81.6347144,28.9415039 81.2469144,28.3781457 C80.8591145,27.8147875 80.6652174,26.9551934 80.6652174,25.7993377 Z M96.9603086,21.0205298 C96.9603086,22.2249508 97.249927,23.1938153 97.8291725,23.9271523 C98.408418,24.6604893 99.1643712,25.0271523 100.097055,25.0271523 C101.029738,25.0271523 101.785691,24.6580611 102.364937,23.9198675 C102.944182,23.181674 103.233801,22.2152378 103.233801,21.0205298 C103.233801,19.8646741 102.936819,18.920092 102.342847,18.186755 C101.748875,17.453418 101.000285,17.086755 100.097055,17.086755 C99.1741889,17.086755 98.4206902,17.4509897 97.8365358,18.1794702 C97.2523814,18.9079507 96.9603086,19.8549611 96.9603086,21.0205298 Z M92.041655,21.0788079 C92.041655,18.6311136 92.8000625,16.6181094 94.3169004,15.0397351 C95.8337383,13.4613608 97.7604371,12.6721854 100.097055,12.6721854 C102.44349,12.6721854 104.367734,13.4589325 105.869846,15.0324503 C107.371957,16.6059681 108.123001,18.6214005 108.123001,21.0788079 C108.123001,23.5362154 107.371957,25.554076 105.869846,27.1324503 C104.367734,28.7108247 102.44349,29.5 100.097055,29.5 C97.7604371,29.5 95.8337383,28.7083964 94.3169004,27.1251656 C92.8000625,25.5419347 92.041655,23.5265023 92.041655,21.0788079 Z M128.129173,14.9304636 C128.315709,14.3088269 128.600419,13.8304653 128.98331,13.4953642 C129.366201,13.1602632 129.827627,12.9927152 130.367602,12.9927152 C131.035207,12.9927152 131.572719,13.2039714 131.980154,13.6264901 C132.38759,14.0490087 132.591304,14.6050738 132.591304,15.294702 C132.591304,15.4792504 132.56676,15.6832218 132.517672,15.9066225 C132.468583,16.1300232 132.375316,16.4408369 132.237868,16.8390728 L128.585694,27.110596 C128.281345,27.9459203 127.920549,28.5384088 127.503296,28.8880795 C127.086043,29.2377501 126.543622,29.4125828 125.876017,29.4125828 C125.159323,29.4125828 124.555542,29.2037548 124.064656,28.7860927 C123.57377,28.3684306 123.220338,27.7613726 123.004348,26.9649007 L121.045722,19.4761589 L119.204909,27.110596 C119.02819,27.8293634 118.701756,28.3927132 118.225596,28.8006623 C117.749437,29.2086113 117.172654,29.4125828 116.495231,29.4125828 C115.76872,29.4125828 115.191938,29.2304654 114.764867,28.8662252 C114.337796,28.5019849 113.957365,27.8682164 113.623562,26.9649007 L109.853576,16.5331126 C109.765217,16.2805727 109.698948,16.0523189 109.654769,15.8483444 C109.610589,15.6443698 109.588499,15.4501113 109.588499,15.2655629 C109.588499,14.605074 109.80694,14.0514371 110.243829,13.6046358 C110.680717,13.1578344 111.223138,12.9344371 111.871108,12.9344371 C112.479807,12.9344371 112.982957,13.1238392 113.380575,13.502649 C113.778193,13.8814588 114.089901,14.459378 114.315708,15.2364238 L116.819215,23.8324503 L118.851473,15.2072848 C119.008556,14.5176566 119.278539,13.9907303 119.661431,13.6264901 C120.044322,13.2622498 120.505748,13.0801325 121.045722,13.0801325 C121.654421,13.0801325 122.164935,13.2671063 122.577279,13.6410596 C122.989623,14.0150129 123.284151,14.5565086 123.46087,15.2655629 L125.625666,23.7013245 L128.129173,14.9304636 Z M139.579243,29.4708609 C137.880777,29.4708609 136.474409,29.1357649 135.360098,28.4655629 C134.245787,27.7953609 133.68864,26.9649056 133.68864,25.9741722 C133.68864,25.3816747 133.865356,24.881459 134.218794,24.4735099 C134.572232,24.0655609 134.999296,23.8615894 135.5,23.8615894 C136.000704,23.8615894 136.737022,24.0898432 137.708976,24.5463576 C138.680931,25.002872 139.41234,25.2311258 139.903226,25.2311258 C140.295935,25.2311258 140.615006,25.138853 140.860449,24.9543046 C141.105892,24.7697563 141.228612,24.5415025 141.228612,24.2695364 C141.228612,23.8033089 140.46775,23.2690979 138.946003,22.6668874 L138.636746,22.5503311 C136.89901,21.8315637 135.711083,21.1200918 135.072931,20.415894 C134.434779,19.7116963 134.115708,18.8205352 134.115708,17.7423841 C134.115708,16.2951363 134.677764,15.0883051 135.801893,14.1218543 C136.926022,13.1554036 138.347116,12.6721854 140.065217,12.6721854 C141.616417,12.6721854 142.931972,12.9975685 144.011921,13.6483444 C145.091871,14.2991203 145.631837,15.0664415 145.631837,15.9503311 C145.631837,16.5039763 145.442849,16.9701968 145.064867,17.3490066 C144.686885,17.7278165 144.223004,17.9172185 143.673212,17.9172185 C143.309956,17.9172185 142.693903,17.7278165 141.825035,17.3490066 C140.956167,16.9701968 140.295935,16.7807947 139.84432,16.7807947 C139.520335,16.7807947 139.260169,16.8560699 139.063815,17.0066225 C138.86746,17.1571751 138.769285,17.3538619 138.769285,17.5966887 C138.769285,18.033777 139.397609,18.4902846 140.654278,18.9662252 C141.243341,19.1896258 141.709676,19.3790279 142.053296,19.5344371 C143.476865,20.1657868 144.49053,20.8335506 145.09432,21.5377483 C145.69811,22.2419461 146,23.0942555 146,24.094702 C146,25.6293675 145.393765,26.9090456 144.181276,27.9337748 C142.968788,28.958504 141.434792,29.4708609 139.579243,29.4708609 Z"/>
  </g>
</svg>
