<svg xmlns="http://www.w3.org/2000/svg" viewBox="0 0 1000 150" fill="none">
    <path fill="#9CA3AF" d="M426.85,0a75,75,0,1,0,45.31,134.76c.67-.51,1.34-1,2-1.57L460,119c-1.1.83-2.23,1.62-3.39,2.36a54.85,54.85,0,1,1,16.64-16.63c-.75,1.15-1.54,2.29-2.37,3.4L485,122.31q.8-1,1.56-2A75,75,0,0,0,426.85,0Z"></path><path fill="#9CA3AF" d="M426.85,35.18a39.82,39.82,0,1,0,0,79.64A39.82,39.82,0,0,0,466.67,75,39.86,39.86,0,0,0,426.85,35.18Z"></path><g id="GQ_Logo_Wordmark-2" data-name="GQ Logo Wordmark"><g id="GQ_Logo_Wordmark-3" data-name="GQ Logo Wordmark"><path fill="#9CA3AF" d="M35.49,51.2c7.41,0,13.38,2.37,18.25,7.24l.93.93,6.92-7.08-.82-.9C54.91,45,46.13,41.55,35.38,41.55,15.21,41.55,0,56,0,75.24s15.35,33.69,35.71,33.69c9.56,0,18.5-3.06,24.52-8.39l.43-.39V74H50.34V95.4a26.14,26.14,0,0,1-14.52,3.88c-14.58,0-25.16-10.11-25.16-24S21.1,51.2,35.49,51.2Z"></path><path fill="#9CA3AF" d="M133.75,79.84c0,13-5.94,19.56-17.65,19.56S98.56,92.82,98.56,79.84V42.33H87.9V80.06c0,18.35,10.28,28.87,28.2,28.87s28.09-10.52,28.09-28.87V42.33H133.75Z"></path><rect fill="#9CA3AF" x="171.34" y="42.84" width="10.66" height="65.93"></rect><polygon fill="#9CA3AF" points="219.8 42.67 209.15 42.67 209.15 108.6 246.5 108.6 246.5 99.28 219.8 99.28 219.8 42.67"></polygon><path fill="#9CA3AF" d="M295.06,42.5H270.65v65.93h24.41c21.83,0,35.94-13,35.94-33S316.89,42.5,295.06,42.5Zm25.28,32.91c0,14.62-9.82,23.71-25.62,23.71H281.3V51.81h13.42C310.52,51.81,320.34,60.85,320.34,75.41Z"></path><path fill="#9CA3AF" d="M568.47,79.84c0,13-5.94,19.56-17.66,19.56s-17.54-6.58-17.54-19.56V42.33H522.61V80.06c0,18.35,10.28,28.87,28.2,28.87S578.9,98.41,578.9,80.06V42.33H568.47Z"></path><path fill="#9CA3AF" d="M626.2,42.33l-30.46,65.93h10.93l7.4-16.37h33.87l7.4,16.37h10.93L635.81,42.33ZM643.86,82.8h-25.7l12.89-28.41Z"></path><polygon fill="#9CA3AF" points="697.68 42.33 687.02 42.33 687.02 108.26 724.37 108.26 724.37 98.95 697.68 98.95 697.68 42.33"></polygon><rect fill="#9CA3AF" x="751.52" y="42.33" width="10.66" height="65.93"></rect><polygon fill="#9CA3AF" points="789.33 51.65 811.64 51.65 811.64 108.26 822.3 108.26 822.3 51.65 844.61 51.65 844.61 42.33 789.33 42.33 789.33 51.65"></polygon><polygon fill="#9CA3AF" points="918.84 42.33 897.8 76.15 876.77 42.33 865.1 42.33 892.36 86.48 892.36 108.26 902.91 108.26 902.91 86.7 930.16 42.33 918.84 42.33"></polygon>
  </g></g>
</svg>
