<svg xmlns="http://www.w3.org/2000/svg" viewBox="0 0 200 24" fill="none">
  <path fill="#9CA3AF" fill-rule="evenodd" d="M9.9 18.226c-.72 0-1.28-.561-1.28-1.28v-5.311c0-1.816-1.014-3.203-2.936-3.203-1.974 0-3.121 1.522-3.121 3.23v5.283c0 .72-.56 1.281-1.281 1.281-.72 0-1.282-.561-1.282-1.28V1.28C0 .56.561 0 1.282 0c.694 0 1.28.56 1.28 1.28v6.806C3.31 6.939 4.805 6.11 6.379 6.11c3.042 0 4.803 2.32 4.803 5.444v5.39c0 .72-.56 1.281-1.28 1.281zm9.534.107c-3.121 0-5.63-2.482-5.63-5.578v-5.23c0-.72.587-1.307 1.308-1.307.72 0 1.307.587 1.307 1.307v5.498c0 1.68 1.254 2.988 3.015 2.988 1.761 0 3.015-1.308 3.015-2.988V7.525a1.309 1.309 0 0 1 2.615 0v5.23c0 3.096-2.508 5.578-5.63 5.578zm26.132-.107c-.72 0-1.281-.587-1.281-1.308v-5.283c0-1.816-.8-3.203-2.722-3.203-1.92 0-2.908 1.44-2.908 3.123v5.363c0 .721-.56 1.308-1.282 1.308-.72 0-1.333-.587-1.333-1.308v-5.283c0-1.816-.801-3.203-2.723-3.203-1.974 0-2.908 1.522-2.908 3.23v5.256a1.31 1.31 0 0 1-1.307 1.308c-.72 0-1.281-.587-1.281-1.308V7.55c0-.72.587-1.334 1.307-1.334s1.308.615 1.308 1.334v.56c.774-1.147 2.028-2 3.575-2 1.869 0 3.175.908 3.897 2.295.747-1.362 2.428-2.295 4.27-2.295 3.254 0 4.695 2.24 4.695 5.364v5.443a1.31 1.31 0 0 1-1.307 1.308zm15.617-1.254c0 .693-.534 1.255-1.228 1.255a1.254 1.254 0 0 1-1.254-1.255v-.534c-.56.934-2.108 1.894-3.842 1.894-3.229 0-5.898-2.721-5.898-6.11 0-3.39 2.75-6.111 6.138-6.111 3.789 0 6.138 2.828 6.111 6.111l-.027 4.75zM55.1 8.432c-2.135 0-3.522 1.708-3.522 3.79 0 2.081 1.387 3.789 3.522 3.789 2.134 0 3.522-1.708 3.522-3.789 0-2.082-1.388-3.79-3.522-3.79zm22.617 3.79c-.026-3.283 2.322-6.111 6.11-6.111 3.39 0 6.139 2.722 6.139 6.111s-2.669 6.11-5.898 6.11c-1.735 0-3.282-.96-3.843-1.894v5.523c0 .694-.56 1.255-1.254 1.255-.693 0-1.227-.56-1.227-1.255l-.027-9.739zm2.588 0c0 2.081 1.389 3.79 3.522 3.79 2.136 0 3.524-1.709 3.524-3.79 0-2.082-1.388-3.79-3.524-3.79-2.133 0-3.522 1.708-3.522 3.79zm45.667 0c.027 3.282-2.321 6.11-6.11 6.11-3.39 0-6.138-2.721-6.138-6.11 0-3.39 2.668-6.111 5.898-6.111 1.734 0 3.282.96 3.842 1.894V2.482c0-.694.56-1.255 1.254-1.255s1.228.561 1.228 1.255l.026 9.74zm-2.588 0c0-2.082-1.388-3.79-3.522-3.79-2.136 0-3.523 1.708-3.523 3.79s1.387 3.79 3.523 3.79c2.134 0 3.522-1.708 3.522-3.79zM73.52 18.225a1.31 1.31 0 0 1-1.308-1.308V11.42c0-1.68-1.254-2.99-3.015-2.99-1.76 0-3.016 1.31-3.016 2.99v5.497c0 .721-.586 1.308-1.306 1.308a1.31 1.31 0 0 1-1.309-1.308v-5.23c0-3.095 2.51-5.577 5.631-5.577 3.122 0 5.63 2.482 5.63 5.577v5.23a1.31 1.31 0 0 1-1.307 1.308zM98.91 8.432c-2.108 0-4.109 1.147-4.109 3.443v5.043c0 .72-.588 1.309-1.308 1.309a1.31 1.31 0 0 1-1.308-1.309V7.526c0-.722.562-1.309 1.282-1.309s1.334.587 1.334 1.309v.56C95.87 6.67 97.07 6.11 98.912 6.11c.64 0 1.147.507 1.147 1.147 0 .642-.507 1.174-1.148 1.174zm12.444 4.59h-8.246c.133 1.788 1.574 3.123 3.495 3.123 1.36 0 2.535-.561 3.47-1.468.187-.187.4-.24.64-.24.32 0 .64.16.853.426.134.187.215.4.215.614 0 .294-.134.614-.375.855-1.12 1.2-3.015 2-4.883 2a6.092 6.092 0 0 1-6.11-6.11c0-3.39 2.641-6.111 6.03-6.111 3.362 0 5.871 2.616 5.871 6.056 0 .509-.453.855-.96.855zM106.444 8.3c-1.788 0-3.015 1.175-3.282 2.882h6.565c-.241-1.628-1.522-2.882-3.283-2.882zm24.111-4.163c-.8 0-1.44-.64-1.44-1.44 0-.801.64-1.468 1.44-1.468.8 0 1.468.667 1.468 1.467s-.667 1.441-1.468 1.441zm0 14.09c-.72 0-1.28-.587-1.28-1.308V7.526c0-.72.56-1.309 1.28-1.309s1.308.588 1.308 1.309v9.392a1.31 1.31 0 0 1-1.308 1.308zm14.232-1.788c-.934 1.04-2.722 1.895-4.43 1.895a6.093 6.093 0 0 1-6.111-6.11 6.093 6.093 0 0 1 6.111-6.112c1.495 0 2.722.32 3.95 1.334.24.213.4.56.4.907 0 .214-.08.454-.24.667a1.114 1.114 0 0 1-.854.427c-.24 0-.507-.08-.72-.24a4.172 4.172 0 0 0-2.536-.827c-2.135 0-3.55 1.76-3.55 3.843 0 2.081 1.415 3.843 3.55 3.843 1.28 0 2.188-.507 2.989-1.228.213-.187.453-.268.694-.268.293 0 .613.108.827.348a.926.926 0 0 1 .267.666c0 .295-.107.588-.347.855zm9.737-7.82h-2.241v8.327c0 .72-.587 1.282-1.307 1.282s-1.308-.562-1.308-1.282V8.619h-1.949c-.586 0-1.067-.507-1.067-1.093 0-.588.481-1.068 1.067-1.068h1.95V2.615c0-.72.586-1.282 1.307-1.282.72 0 1.307.562 1.307 1.282v3.843h2.241c.587 0 1.068.48 1.068 1.068 0 .586-.48 1.093-1.068 1.093zm4.198-4.482c-.8 0-1.441-.64-1.441-1.44 0-.801.64-1.468 1.44-1.468.801 0 1.468.667 1.468 1.467s-.667 1.441-1.467 1.441zm0 14.09c-.72 0-1.281-.587-1.281-1.308V7.526c0-.72.56-1.309 1.28-1.309.721 0 1.308.588 1.308 1.309v9.392a1.31 1.31 0 0 1-1.307 1.308zm9.8.106a6.092 6.092 0 0 1-6.11-6.11 6.093 6.093 0 0 1 6.11-6.111 6.093 6.093 0 0 1 6.112 6.111 6.093 6.093 0 0 1-6.111 6.11zm0-9.9c-2.134 0-3.521 1.708-3.521 3.79 0 2.081 1.387 3.789 3.522 3.789 2.136 0 3.523-1.708 3.523-3.789 0-2.082-1.387-3.79-3.523-3.79zm18.02 9.794a1.31 1.31 0 0 1-1.307-1.308V11.42c0-1.68-1.254-2.99-3.016-2.99-1.761 0-3.015 1.31-3.015 2.99v5.497a1.31 1.31 0 0 1-1.307 1.308 1.31 1.31 0 0 1-1.308-1.308v-5.23c0-3.095 2.51-5.577 5.63-5.577 3.123 0 5.63 2.482 5.63 5.577v5.23a1.31 1.31 0 0 1-1.307 1.308zm8.44.107c-1.307 0-3.014-.427-4.269-1.175-.4-.24-.64-.613-.64-1.013 0-.134.053-.267.107-.4.16-.374.453-.614.827-.614.159 0 .374.053.534.16.987.587 2.134.934 3.282.934 1.307 0 2.722-.374 2.722-1.414 0-.802-.721-1.094-3.443-2.028-2.241-.774-3.415-1.79-3.415-3.443 0-1.975 1.974-3.229 4.562-3.229 1.761 0 2.882.374 4.004.907.453.214.72.56.72.987a.94.94 0 0 1-.08.374 1.07 1.07 0 0 1-1.014.694.86.86 0 0 1-.374-.08c-.96-.454-1.974-.72-3.041-.72-1.415 0-2.296.32-2.296 1.173 0 .854.694 1.04 2.695 1.682 2.43.8 4.137 1.627 4.137 3.628 0 1.949-1.789 3.577-5.017 3.577z">
  </path>
</svg>
