<svg xmlns="http://www.w3.org/2000/svg" viewBox="0 0 140 40" fill="none">
  <path d="M52.0293 14.659C53.3397 14.659 54.3434 13.6553 54.3434 12.4007C54.3434 11.1739 53.3397 10.1702 52.0293 10.1702C50.691 10.1702 49.7151 11.1739 49.7151 12.4007C49.7151 13.6553 50.691 14.659 52.0293 14.659ZM50.1612 30.133H53.8137V16.4992H50.1612V30.133Z" fill="#9CA3AF"/>
  <path d="M56.363 30.133H60.0155V23.3021C60.0155 20.8486 61.2422 19.5661 63.0824 19.5661C64.7831 19.5661 65.7032 20.3746 65.7032 22.9676V30.133H69.3556V22.0475C69.3556 17.8653 67.3203 16.304 64.4207 16.304C62.7199 16.304 61.1586 16.9731 60.0712 18.2557H60.0155V16.4992H56.363V30.133Z" fill="#9CA3AF"/>
  <path d="M74.8595 30.133H78.261L83.6142 16.4992H79.7944L76.5881 25.6442H76.5602L73.4097 16.4992H69.5063L74.8595 30.133Z" fill="#9CA3AF"/>
  <path d="M90.2459 30.3839C94.4838 30.3839 97.4671 27.4843 97.4671 23.33C97.4671 19.1479 94.4838 16.304 90.2459 16.304C85.8965 16.304 82.9968 19.2594 82.9968 23.33C82.9968 27.4007 85.8965 30.3839 90.2459 30.3839ZM90.2459 27.094C88.1548 27.094 86.705 25.449 86.705 23.33C86.705 21.1832 88.127 19.5661 90.2459 19.5661C92.2534 19.5661 93.7589 21.0995 93.7589 23.33C93.7589 25.5605 92.1976 27.094 90.2459 27.094Z" fill="#9CA3AF"/>
  <path d="M99.2439 30.133H102.896V9.61255H99.2439V30.133Z" fill="#9CA3AF"/>
  <path d="M109.732 30.133H113.133L118.486 16.4992H114.666L111.46 25.6442H111.432L108.282 16.4992H104.378L109.732 30.133Z" fill="#9CA3AF"/>
  <path d="M121.528 14.659C122.839 14.659 123.842 13.6553 123.842 12.4007C123.842 11.1739 122.839 10.1702 121.528 10.1702C120.19 10.1702 119.214 11.1739 119.214 12.4007C119.214 13.6553 120.19 14.659 121.528 14.659ZM119.66 30.133H123.313V16.4992H119.66V30.133Z" fill="#9CA3AF"/>
  <path d="M132.358 30.3839C136.596 30.3839 139.579 27.4843 139.579 23.33C139.579 19.1479 136.596 16.304 132.358 16.304C128.009 16.304 125.109 19.2594 125.109 23.33C125.109 27.4007 128.009 30.3839 132.358 30.3839ZM132.358 27.094C130.267 27.094 128.817 25.449 128.817 23.33C128.817 21.1832 130.239 19.5661 132.358 19.5661C134.366 19.5661 135.871 21.0995 135.871 23.33C135.871 25.5605 134.31 27.094 132.358 27.094Z" fill="#9CA3AF"/>
  <path d="M30.1264 6.12218C26.8724 2.8047 22.5353 0.977539 17.9098 0.977539C13.2944 0.977539 8.95731 2.8047 5.70325 6.12218C2.48462 9.39372 0.738663 13.7115 0.774088 18.2794C0.804453 22.0307 1.85709 25.3584 3.98766 28.4513C6.47249 32.0648 10.4199 35.3721 16.0575 38.5569C16.1183 38.5926 16.1841 38.6232 16.2498 38.659C16.8824 38.9448 18.4513 39.4449 20.1972 38.3119C20.4148 38.1741 20.5717 38.0822 20.7084 38.021C25.8501 34.9995 29.4989 31.8658 31.8471 28.4513C33.9776 25.3533 35.0303 22.0307 35.0606 18.2794C35.0961 13.7115 33.345 9.38862 30.1264 6.12218ZM17.9148 35.0046C6.32067 28.4258 4.79232 22.5922 4.7569 18.2437C4.72653 14.7527 6.06763 11.4506 8.53221 8.94458C11.0373 6.39778 14.3723 4.99424 17.9199 4.99424C21.4675 4.99424 24.7974 6.39778 27.3025 8.94458C29.7671 11.4506 31.1031 14.7527 31.0778 18.2437C31.0373 22.5922 29.509 28.4156 17.9148 35.0046Z" fill="#9CA3AF"/>
  <path fill-rule="evenodd" clip-rule="evenodd" d="M17.5797 10.8187C18.7829 10.8187 19.7583 11.7941 19.7583 12.9974V19.6145L23.1931 21.911C24.1934 22.5798 24.4621 23.9328 23.7933 24.9331C23.1246 25.9334 21.7715 26.2021 20.7713 25.5333L16.3687 22.5897C15.764 22.1854 15.401 21.506 15.401 20.7786V12.9974C15.401 11.7941 16.3764 10.8187 17.5797 10.8187Z" fill="#9CA3AF"/>
</svg>
