<svg xmlns="http://www.w3.org/2000/svg" fill="none" viewBox="0 0 322 124"><path fill="#262626" d="M6.682 52.385c-.277.341-.661.467-1.05.484-.973.043-1.838.3-2.699.666-.097.004-.088.223-.175.445 0 0 .102.105.106.215.2.1.491.088.686.08l4.667-.204c.973-.043 2.047.02 3.024.087.097-.005.2.1.2.1.106.215.014.328-.176.446-.574.244-1.152.379-1.828.518-.385.126-.667.358-.944.698.301.206.7.408 1 .614.2.1.307.315.312.424-.088.223-.17.555-.36.673-.477.24-1.06.265-1.537.505-.18.336.116.433.315.534a4.211 4.211 0 002.97 1.075c1.556-.068 3.107-.245 4.658-.422.583-.026 1.26-.165 1.842-.19 1.362-.06 2.64.213 3.88-.389.778-.034 1.556-.068 2.344.117.982.176 2.046.02 3.019-.022 3.389-.477 6.788-.735 10.176-1.211.968-.152 1.746-.186 2.621-.224.486-.022.977.066 1.357-.17 1.147-.487 2.32-.429 3.486-.48l1.361-.06c2.519-.328 5.15-.334 7.672-.553.778-.034 1.552-.177 2.325-.32.865-.258 1.833-.41 2.81-.343.685.08 1.352-.278 2.018-.635 1.138-.707 2.417-.434 3.686-.38.097-.004.296.096.398.201.719.845 1.585.588 2.45.332.477-.24.963-.262 1.551-.178 1.279.273 2.44.113 3.686-.38 1.245-.492 2.597-.77 3.885-.279.393.093.782.076 1.171.059 1.945-.085 3.89-.17 5.83-.364.583-.026 1.065-.156 1.648-.182.292-.013.579-.135.875-.038 1.857.138 3.705.057 5.547-.133.681-.03 1.362-.06 2.144.016 4.279-.187 8.562-.264 12.841-.451 4.959-.217 9.923-.324 14.887-.43 2.139-.094 4.39.136 6.529.042 2.139-.093 4.385.028 6.529.044 2.63-.005 5.26-.01 7.988-.02 1.167-.051 2.338.007 3.51.066l.486-.022c.875-.038 1.639-.4 2.528-.11.691.189 1.561.041 2.344.117.88.07 1.759.142 2.537.108 1.367.05 2.825-.014 4.191.036.977.067 2.052.13 3.029.196.486-.021.977.067 1.366.05 1.167-.05 2.334-.102 3.505-.043.88.07 1.639-.4 2.524-.22.787.185 1.57.26 2.26.449l.195-.009c2.815-.232 5.576.523 8.391.291 3.325.293 6.728.144 10.058.547.977.066 2.033-.308 3.024.087.199.1.486-.022.671-.249.564-.463.958-.37 1.468.155.102.105.399.202.69.189.487-.021.866-.257 1.352-.278.389-.017.778-.034 1.079.172.603.412 1.094.5 1.779.58.978.066 1.964.352 3.039.414 1.662.147 3.228.297 4.89.444 1.371.159 2.742.318 4.21.473.588.084 1.074.063 1.658.037.486-.021.967-.152 1.361-.06 1.964.353 4.011.373 6.067.612.491.088.977.067 1.371.16 1.074.062 2.154.234 3.228.296 1.371.16 2.746.428 4.21.474 1.463.045 2.941.419 4.409.574 1.764.251 3.534.612 5.381.531.195-.008.292-.012.491.088 1.39.597 2.941.42 4.414.684 3.238.516 6.461.703 9.708 1.438.194-.009.296.096.491.088 2.44.112 4.808.775 7.156 1.002 1.565.15 3.043.524 4.617.893 1.964.352 3.826.6 5.79.952 2.654.541 5.313 1.192 8.059 1.62.491.087.885.18 1.381.377.889.29 1.779.58 2.751.537 1.172.058 2.26.449 3.354.949.598.302.719.844.159 1.416-.647.795-1.489 1.599-1.932 2.604.005.109-.092.113-.185.227-2.058 1.951-3.805 4.327-5.965 6.174-.565.463-1.124 1.035-1.8 1.174-.968.151-1.717.841-2.471 1.422-4.247 3.142-8.489 6.394-13.052 9.002-2.753 1.654-5.506 3.307-8.273 4.633-1.24.601-2.471 1.421-3.702 2.242-.379.236-.559.572-.535 1.118.014.328-.069.66-.05 1.098.024.546.14.98.456 1.513 1.034 1.379 2.069 2.757 2.826 4.476.106.215.31.425.51.526 1.418 1.252 1.627 1.571 2.472 3.068.209.319.32.643.524.853.802.512 1.224 1.26 1.365 2.24.009.219.31.424.51.525.398.202.889.29 1.38.378a.748.748 0 00.681-.03c1.726-.623 3.559-1.031 5.271-1.982a33.916 33.916 0 002.656-1.649c1.513-1.052 3.128-1.999 4.646-2.941 1.328-.824 2.753-1.653 4.081-2.478a7.782 7.782 0 012.096-1.077c1.439-.501 2.675-1.212 3.998-2.146 5.103-3.618 9.997-7.555 14.576-12.026 2.895-2.864 5.688-5.833 8.369-9.126.832-1.022 1.665-2.044 2.594-3.07.37-.455.74-.909 1.212-1.258.559-.572 1.425-.829 1.882-1.506.458-.677.711-1.564 1.072-2.237.087-.223.272-.45.462-.568 1.484-1.707 2.658-3.84 4.239-5.551.467-.458.73-1.127 1.095-1.69.453-.787.614-1.56.182-2.527-.102-.105-.111-.324-.121-.543-.081-1.858-.926-3.354-1.673-4.855-.214-.428-.422-.748-.539-1.18-.218-.539-.436-1.077-.465-1.733-.014-.328-.126-.651-.238-.975-.524-.853-.956-1.82-1.577-2.669-4.05-5.737-8.567-11.015-13.357-15.844-1.632-1.68-3.459-3.353-5.184-4.92-4.566-4.182-9.221-8.14-14.152-11.758-4.13-3.105-8.251-5.992-12.653-8.647-1.798-1.016-3.693-2.029-5.579-2.823-1.789-.798-3.655-1.154-5.498-.964-.778.034-1.551.177-2.334.102l-1.166.05c-2.408.653-4.94.654-7.352 1.198-.871.147-1.834.408-2.699.665-.866.257-1.202 1.476-.775 2.334.213.428.524.853 1.02 1.05.399.202.7.408 1.094.5l5.977 3.025c1.895 1.012 3.795 2.134 5.51 3.482 1.915 1.45 3.912 2.568 5.821 3.908.904.618 1.9 1.122 2.897 1.626 1.987.899 3.707 2.357 5.325 3.71.505.416.826 1.059 1.331 1.475.413.53.826 1.059 1.331 1.475 1.312 1.038 2.628 2.185 4.125 2.996 1.098.609 2.007 1.336 2.643 2.513.213.428.617.74 1.025 1.16 1.627 1.571 3.352 3.139 4.984 4.82 1.326 1.365 2.56 2.845 3.793 4.324.102.105.117.433.029.656.005.11-.287.122-.379.236l-.487.02c-.291.014-.588-.083-.879-.07-1.571-.26-3.043-.525-4.618-.894-1.279-.273-2.562-.655-3.938-.923-4.715-.89-9.527-1.774-14.33-2.44-2.747-.428-5.59-.852-8.337-1.28-.296-.096-.685-.08-.875.039-1.05.484-1.94.194-2.839-.315-1.599-.915-3.261-1.062-4.983-.33-.384.127-.768.253-1.074-.062-1.224-1.26-2.688-1.306-4.137-1.024-.194.008-.481.13-.676.139-.194.008-.287.122-.486.021-1.672-.365-3.413-.07-5.007-.876-.5-.307-1.084-.282-1.56-.042-.477.24-1.065.156-1.556.068-1.672-.365-3.34-.62-5.085-.435-.486.021-.973.043-1.371-.16-.491-.087-.89-.289-1.371-.158-.194.008-.486.02-.681.03-.884-.181-1.866-.357-2.751-.538-.593-.193-1.278-.272-1.779-.579-1.297-.71-2.761-.755-4.122-.696-1.75.076-3.593.266-5.334.561-.583.026-1.264.056-1.852-.028-1.57-.26-3.238-.516-4.808-.776-.296-.097-.588-.084-.889-.29-1.098-.609-2.275-.776-3.437-.616-.583.025-1.065.156-1.565-.151a1.121 1.121 0 00-1.167.051c-.764.362-1.444.392-2.241-.012-.297-.096-.589-.083-.88-.07l-.005-.11.024.546c-.083.333-.273.45-.467.459-.584.025-1.089-.39-1.492-.702-.807-.621-1.691-.802-2.669-.869-.194.009-.486.021-.671.249-.365.563-.749.69-1.347.387-.199-.1-.588-.084-.875.038-.574.244-1.157.27-1.847.08-.297-.096-.589-.083-.88-.07a6.08 6.08 0 01-3.734-.713c-.286.122-.578.134-.768.252-.287.122-.671.249-.88-.07-.607-.522-1.2-.715-1.973-.572-.195.009-.292.013-.491-.088-.273.45-.749.69-1.134.816-.574.244-1.064.156-1.56-.041-.102-.105-.301-.206-.306-.315-.019-.438-.321-.643-.608-.521-.675.139-1.351.278-2.051-.13-.199-.1-.686-.08-.875.038-.856.476-1.639.4-2.533.001-.102-.105-.292.013-.486.022-.093.113-.278.34-.467.458-.181.337-.468.459-.764.362-.593-.193-1.186-.386-1.774-.47a.749.749 0 00-.681.03c-.569.353-1.065.156-1.38-.378-.209-.32-.506-.416-.793-.294-.194.008-.481.13-.671.248-1.162.16-2.397.872-3.588.376a.749.749 0 00-.681.03c-.865.256-1.653.072-2.528.11-.583.026-1.269-.054-1.852-.029-.583.026-1.07.047-1.57-.26-.399-.201-.783-.075-1.167.051-.56.572-1.143.598-1.746.186-.699-.407-1.389-.596-2.177-.781-.593-.193-.977-.067-1.439.5-.75.69-1.634.51-2.431.107-.399-.202-.71-.626-1.288-.491l-.093.113-.005-.11c-.291.014-.583.026-.972.043-.389.017-.778.034-1.06.266-.749.69-1.44.5-2.237.097-.296-.096-.5-.306-.801-.512-.2-.101-.496-.198-.69-.19-1.158.27-2.339-.007-3.511-.065-.588-.084-1.064.156-1.541.396-.477.24-1.06.265-1.561-.041-.903-.618-1.978-.68-2.941-.42a5.69 5.69 0 01-3.019.023c-.394-.093-.972.042-1.356.168-.676.14-1.343.497-2.014.745-.189.118-.476.24-.676.14-1.39-.597-2.824.013-4.19-.037l-.195.009-.005-.11c-.365.564-.744.8-1.434.61-.89-.289-1.775-.47-2.756-.645-.491-.088-.885-.18-1.362.059-.763.362-1.546.287-2.251-.23-.102-.105-.296-.097-.491-.088-.763.361-1.619.837-2.587.989-.87.147-1.658-.037-2.537-.108l-2.14.093c-.676.139-1.361.06-2.056-.239-.695-.298-1.37-.159-1.93.413-.468.458-1.056.375-1.547.286-.394-.092-.7-.407-1-.613-.4-.201-.793-.294-1.08-.172-1.328.825-2.893.674-4.352.738-1.07.047-2.144-.016-3.306.144-.583.026-1.07.047-1.565-.15-.792-.294-1.663-.147-2.533 0-.195.009-.482.131-.57.354-.16.773-.832 1.022-1.299 1.48-.184.227-.574.244-.87.148-.394-.093-.695-.298-1.093-.5-.496-.197-.89-.29-1.367-.05-.67.248-1.264.055-1.764-.251-.301-.206-.7-.408-1.001-.614-.2-.1-.491-.088-.686-.08-.67.249-1.235.712-1.8 1.174-.092.114-.082.333-.175.446-.088.223-.272.45-.564.463-.783-.075-1.56-.042-2.173-.672-.199-.1-.398-.202-.69-.189l-.486.021c-.778.034-1.537.506-2.315.54-.778.034-1.57-.26-2.348-.226-1.361.059-2.81.341-4.167.51-.194.008-.481.13-.676.139-.972.043-1.842.19-2.694.775-.374.345-.86.366-1.356.169-.695-.299-1.366-.05-2.033.307-.092.114-.287.122-.481.13-.297-.096-.69-.188-.992-.394-.5-.307-1.088-.39-1.57-.26-1.356.169-2.824.014-4.171.401-.287.122-.584.026-.875.038-.292.013-.468.459-.453.787.014.328.325.752.524.853.394.092.783.075 1.172.058.778-.034 1.56.042 2.26.45l.306.314-.088.223c-.574.244-1.045.594-1.726.623-.977-.067-2.037.199-3.024-.087-.787-.184-1.556.068-2.334.102-.097.004-.102-.105-.199-.1-.107-.215-.111-.324.078-.442.482-.13 1.06-.266 1.542-.396.287-.122.365-.564.253-.887-.534-1.072-1.428-1.471-2.386-1.1-.287.121-.574.243-.856.475-.57.353-1.05.484-1.74.295-1.182-.277-2.344-.117-3.394.367-.954.48-1.921.631-2.996.569-.977-.067-2.047-.02-2.888.783-.278.34-.667.358-1.06.265-.2-.1-.496-.197-.69-.189-1.343.497-2.63.006-3.895.06-1.366-.049-2.83-.095-4.167.511-.666.358-1.356.17-2.037.199-1.167.05-2.329.211-3.491.371-.579.135-1.153.38-1.513 1.052-.088.223.029.656.223.647.097-.004.102.105.2.101 1.064-.156 2.236-.097 3.199-.359a14.163 14.163 0 013-.46c1.366.05 2.635.105 3.875-.497 2.14-.093 4.357-.628 6.515-.284.394.092.7.407.816.84.01.219-.17.555-.365.564-1.283-.382-2.64-.214-3.904-.158-.292.012-.579.134-.86.366-.288.122-.55.79-.44 1.114.117.433.423.748.817.84.885.18 1.658.038 2.412-.543.277-.34.666-.358 1.06-.265.787.184 1.57.26 2.26.449.89.29 1.663.146 2.533-.001.579-.135 1.06-.266 1.639-.4.676-.14 1.148-.489 1.62-.838a1.23 1.23 0 011.06-.265c.49.088.889.29 1.38.378.982.176 1.964.352 2.917-.128.38-.235.87-.147 1.357-.168.097-.005.209.319.209.319-.088.223-.171.555-.366.564-.384.126-.768.252-1.157.27-3.111.135-6.204.708-9.306 1.063-.875.038-1.648.181-2.505.656a3.98 3.98 0 01-1.541.396c-1.264.055-2.616.334-3.899-.049-.69-.188-1.366-.05-2.042.09-.579.134-1.255.273-1.828.517a6.648 6.648 0 01-2.028.418c-1.454.173-2.922.018-4.352.737l-.097.004c.977.067 1.857.138 2.825-.013a9.556 9.556 0 013.514.175c1.08.172 2.071.566 3.228.297.098-.004.297.096.399.201.102.106.107.215.213.43.005.109-.087.222-.087.222-.287.122-.57.353-.861.366-1.08-.172-2.159-.344-3.228-.297-.195.008-.399-.202-.69-.189-.098.004-.39.017-.384.126-.264.669-.75.69-1.328.825-.292.013-.574.244-.861.366-.287.122-.273.45.033.765l.306.316c-.092.113-.18.336-.277.34-1.25.383-2.49.985-3.866.717-1.079-.172-1.56-.042-2.047-.02zm175.795-16.874c-.005-.11-.005-.11 0 0zm-63.751-.83s-.098.004-.2-.102c0 0-.004-.109-.106-.214l.306.315zm-.632 16.783s.098-.005.2.1c0 0 .004.11.106.215-.204-.21-.208-.32-.306-.316zm22.628-1.646c.107.215.306.316.413.53.18-.336.258-.778.74-.908.481-.13.865-.257 1.352-.279.097-.004.301.206.301.206.005.11-.083.333-.176.446-.286.122-.578.135-.87.148-.486.02-.875.038-1.25.383-.301-.206-.593-.193-.51-.526zm17.13-2.61l-.009-.218.009.219zM28.285 56.262l-.01-.219.01.219c.194-.009.384-.127.574-.244.194-.009.291-.013.204.21l-.195.008-.583.026zm35.624-2.98l-.32-.642s.185-.228.282-.232c.097-.004.301.206.301.206.01.219-.175.446-.263.669zm125.287-17.845c-.282.232-.472.35-.754.58-.19.119-.292.014-.302-.205-.004-.11.093-.114.185-.227.292-.013.579-.135.871-.148.199.101.491.089.69.19.102.104.111.323.213.428-.097.004-.286.122-.388.017-.204-.21-.311-.424-.515-.635zm3.124 2.383c-.195.008-.482.13-.769.252-.097.005-.199-.1-.199-.1-.107-.215-.014-.328.18-.337.283-.231.579-.135.788.185zm-3.818 1.81l.194-.01c.098-.004.098-.004.2.102-.2-.101-.297-.097-.394-.093l-.904-.617c-.097.004-.102-.105-.107-.215.098-.004.287-.122.385-.126.296.097.417.639.626.958zm-6.835-.36c-.195.01-.389.018-.584.026-.102-.105-.209-.32-.213-.429-.015-.328.175-.445.467-.458.291-.013.491.088.505.416-.092.114-.185.227-.175.446zm-80.723 9.877c.102.105.297.096.399.201-.102-.105-.204-.21-.399-.201-.107-.215-.403-.311-.505-.416-.102-.105-.112-.324-.116-.433.092-.114.18-.336.277-.34.292-.014.588.083.885.18.087-.223.078-.442.165-.665-.004-.109.093-.113.19-.117l.195-.009c.102.105.111.324-.078.442l-.57.353c-.083.332-.263.669-.443 1.005zm91.277-9.133c-.297-.096-.598-.302-.894-.398-.102-.106-.297-.097-.399-.202-.097.004-.107-.214-.107-.214.093-.114.18-.337.278-.341.68-.03.903.617 1.122 1.156zm-36.016.697c-.088.223-.074.55-.264.668-.374.345-.962.261-1.37-.159l-.107-.214c.092-.114.18-.337.277-.34.467-.46.968-.152 1.464.045l.486-.021c.194-.009.291-.013.107.214l-.195.008c-.199-.1-.301-.205-.398-.201zM28.89 47.802c.082-.332.068-.66.156-.883.18-.337.564-.463.958-.37.194-.009.403.31.316.533-.093.114-.18.337-.278.34-.282.232-.671.25-1.152.38-.491-.088-.88-.071-1.367-.05 0 0-.101-.105-.106-.215-.005-.109.092-.113.092-.113.588.084.987.285 1.38.378zm188.653.962c.19-.118.477-.24.764-.362l.486-.02c.195-.01.51.524.524.852.01.219-.272.45-.467.459-.68.03-1.084-.282-1.307-.929zM108.55 47.062c-.283.23-.56.572-1.051.483-.194.009-.491-.088-.505-.416-.112-.323-.223-.647.054-.987.273-.45.55-.791.823-1.241.185-.227.476-.24.583-.026.214.43.432.967.646 1.396.023.547-.356.782-.55.79zm-48.378-7.963c-.097.004-.097.004-.19.117-.467.459-1.235.711-1.197 1.586-.277.34-.958.37-1.171-.059-.21-.319-.423-.748-.442-1.185-.01-.219.074-.55.166-.664.37-.454.75-.69 1.216-1.149.238.976.928 1.165 1.618 1.354zm3.112 11.034c-.19.118-.379.236-.67.248-.385.127-.783-.075-.793-.294-.111-.323-.033-.765.152-.992.184-.227.462-.568.754-.58.967-.152 1.935-.304 2.907-.346.097-.005.302.206.306.315.102.105.015.328.02.437-.273.45-.74.909-1.217 1.148-.467.459-.948.59-1.459.064zm8.533-12.09c-.195.008-.477.24-.671.248-.773.143-1.648.181-2.519.329-.097.004-.194.008-.2-.101l-.305-.315c.078-.442.151-.992.327-1.438.088-.223.374-.345.569-.353.773-.144 1.376.268 1.886.793.184-.227.467-.458.656-.576l.195-.009c.097-.004.102.106.107.215-.093.113-.083.332-.18.336l-.876.039c.399.201.705.516 1.01.831zM60.189 48.406a.92.92 0 01-.05 1.097c-.087.223-.175.446-.36.673 0 0 .005.109-.092.113-.005-.11.092-.113.087-.223-.472.35-.856.476-1.176-.167-.418-.64-1.01-.832-1.687-.693-.675.139-1.268-.054-1.861-.248-.098.005-.204-.21-.306-.315-.102-.105.272-.45.467-.458l.486-.022c.885.18 1.444-.391 2.004-.963-.385.126-.861.366-1.357.169-.097.004-.204-.21-.31-.425-.108-.214.175-.446.37-.454.485-.021.796.403 1.2.714 1.074.063 1.866.357 2.585 1.202zm36.874-3.363c.2.101.403.311.602.412.399.202.51.525.534 1.072-.059.879-.224 1.543-1.09 1.8-.86.366-1.828.518-2.699.665-.097.004-.204-.21-.209-.32.079-.44.157-.882.337-1.219.166-.664.429-1.333 1.216-1.148.097-.004.282-.231.278-.34.156-.883.642-.905 1.031-.922.282-.231.467-.458.652-.685.093-.114.292-.013.301.206.005.109-.087.223-.087.223-.292.012-.58.134-.866.256zm82.125-6.761c-.301-.206-.7-.408-1.079-.172-.764.362-1.444.391-2.222.425a9.404 9.404 0 01-.222-2.837c.074-.551.351-.892.93-1.027.578-.134 1.264-.055 1.857.138.398.202.894.4 1.293.601-.463.568-1.352.278-1.815.846.496.197.992.395 1.293.6.199.101.214.43.223.648-.083.332-.268.56-.258.778.107.214.218.538.038.874-.088.223-.379.236-.569.354-.097.004-.296-.097-.398-.202-.2-.1-.117-.433.068-.66l.861-.366zm-74.959 1.301c.296.097.496.198.704.517.413.53.155 1.307-.327 1.438-.675.139-1.347.387-2.023.526-.481.13-.782-.075-.903-.617s-.345-1.19-.368-1.736c-.015-.328.063-.77.35-.892.56-.572 1.134-.816 1.921-.631.297.096.501.306.617.74-.092.113.019.437.029.655zm27.926 5.9c.325.752.548 1.4 1.248 1.807.199.1.213.428.033.765-.092.113-.18.336-.273.45-.365.563-.754.58-1.162.16-.306-.315-.617-.74-1.112-.937-.598-.303-1.181-.277-1.644.29-.277.341-.559.573-.958.371-.296-.096-.579.135-.87.148-.219-.538-.34-1.08-.553-1.51-.112-.323-.029-.655.151-.992.273-.45.55-.79 1.032-.92.578-.136 1.157-.27 1.847-.081.792.294 1.575.369 2.261.448.194-.008.287-.122.379-.235.19-.118.292-.013.204.21 0 0-.092.114-.19.118-.097.004-.199-.101-.393-.093zm-14.596.418c.088-.223.074-.551.161-.774.351-.891.92-1.245 1.62-.837.899.508 1.886.794 2.872 1.079.098-.004.102.105.107.214.107.215.019.438-.078.442-.579.134-.958.37-1.119 1.144l-.263.668c-.268.56-.944.699-1.352.278-.102-.105-.209-.319-.213-.428-.005-.11.18-.337.175-.446-.005-.11-.014-.328-.116-.433-.603-.412-1.376-.268-1.794-.907zm-90.957 5.285c.092-.113.18-.336.277-.34 1.181.276 2.445.221 3.71.166.68-.03 1.18.277 1.774.47.097-.004.102.105.199.1.102.106.218.539.033.766-.837.913-1.026 1.03-1.828.518-.705-.517-1.4-.815-2.182-.89-.588-.084-1.181-.277-1.774-.47-.093.113-.102-.106-.21-.32zm19.939-7.441c-1.594-.807-1.594-.807-2.848-.533-.385.126-.769.252-1.158.27-.097.004-.19.117-.194.008-.102-.105-.297-.097-.399-.202-.005-.109-.019-.437.078-.441 1.523-.833 3.185-.687 4.727-1.083.398.202.88.072 1.195.605.005.11.01.219-.087.223-.375.345-.847.694-1.314 1.153zm123.223-9.323c.292-.013.773-.143 1.357-.169.486-.02.884.18 1.292.601 0 0 .103.105.107.214.005.11-.087.223-.087.223-1.44.501-2.927-.091-4.269.406-.098.004-.195.008-.2-.101-.199-.101-.403-.311-.51-.526-.106-.214-.024-.546.166-.664.579-.135 1.264-.055 2.144.016zM150.678 45.77c-.024-.547.35-.892.647-.795a4.114 4.114 0 011.997 1.117c.102.105.325.753.14.98-.175.446-.744.799-1.143.597-.593-.193-1.098-.609-1.418-1.252-.107-.214-.121-.542-.223-.647zm-137.4 8.19c.088-.224.079-.442.263-.67.555-.68 1.532-.614 2.047.02.204.21.413.53.525.854.106.214.024.546-.166.664-.851.585-1.833.409-2.547-.327a1.318 1.318 0 00-.122-.542zM61.244 36.86c.291-.012.583-.025.782.076.885.18 1.862.247 2.728-.01l.486-.021c.194-.008.292-.013.49.088.098-.004.103.105.2.1-.092.114-.18.337-.277.341-.76.472-1.653.073-2.524.22-.87.148-1.629.619-2.509.548-.097.004-.296-.097-.398-.202-.102-.105-.117-.433-.117-.433.38-.235.856-.475 1.139-.707zm97.897-2.522c1.649-.181 2.723-.119 3.71.167.097-.004.204.21.213.429l-.087.222c-.287.123-.574.245-.866.257-.88-.07-1.857-.138-2.727.01-.389.017-.783-.075-1.084-.281-.098.004-.204-.21-.214-.43l.185-.226c.384-.126.87-.148.87-.148zM41.377 50.432c.097-.004.19-.117.19-.117.097-.005.296.096.394.092-.093.114-.083.332-.176.446.005.109-.092.113-.185.227-.18.336-.18.336.214.428.2.101.583-.025.598.303.014.328-.278.34-.57.353-.291.013-.578.135-.87.148-.68.03-1.152.379-1.517.942-.088.223-.58.135-.589-.084-.004-.109-.111-.323-.023-.546.272-.45.545-.9.725-1.236.273-.45.652-.686 1.133-.816.195-.009.385-.127.676-.14zm151.431-14.825c1.454-.173 2.848.533 4.399.356.098-.005.2.1.2.1s.102.106.106.215c.107.214.015.328-.175.446-.097.004-.19.118-.194.008-1.08-.172-2.149-.125-3.224-.188-.194.009-.486.022-.685-.08-.195.01-.297-.096-.394-.092l-.306-.315c-.199-.1.078-.441.273-.45zm30.51 2.61c.092-.113.175-.445.18-.336 1.468.155 2.932.2 4.302.36.098-.004.204.21.209.32.005.109-.083.332-.18.336-.092.113-.287.122-.481.13-1.172-.058-2.251-.23-3.423-.288-.194.008-.296-.097-.398-.202-.098.004-.102-.105-.209-.32zM70.966 49.798c-.01-.218-.014-.327.083-.331.083-.333.365-.564.652-.686.384-.126.783.075.996.504.21.32.32.643.14.98-.184.227-.365.563-.651.685-.093.114-.39.017-.39.017-.407-.42-.621-.849-.83-1.168zm41.823-8.287c-.292.013-.579.135-.963.261-.486.022-.885-.18-1.288-.491 0 0-.102-.105-.01-.219-.004-.109.093-.113.185-.227 1.158-.27 2.334-.102 3.408-.039.098-.004.102.105.2.1.004.11.106.215.106.215.005.11.01.219-.087.223-.467.459-.973.043-1.551.177zm63.982 3.887c-.365.564-.735 1.018-1.1 1.581-.093.114-.282.232-.38.236-.194.008-.486.021-.588-.084-.102-.105-.218-.538-.126-.651.351-.892 1.008-1.468 1.98-1.51.097-.005.102.105.199.1l.015.328zm-2.574-3.173c-.098.004-.287.122-.389.017-.501-.307-.992-.395-1.483-.483-.292.013-.588-.084-.884-.18-.098.004-.205-.21-.214-.429-.005-.11.18-.336.277-.34.968-.152 1.77.36 2.654.54.195-.008.311.425.224.648-.093.114-.19.118-.185.227zm24.659 4.728c.098-.005.394.092.69.189.2.1.501.306.511.525.014.328-.283.231-.482.13-.792-.294-1.463-.045-2.125.422-.092.113-.296-.097-.306-.315-.005-.11.083-.333.176-.446.277-.34.758-.471 1.536-.505zm-60.644-1.076c-.292.013-.588-.084-.885-.18-.199-.101-.403-.311-.32-.643.069-.66.443-1.005.939-.808.491.088.704.517.636 1.177-.088.223-.278.34-.37.454zM36.52 50.754c.01.219.02.437-.069.66-.078.442-.355.782-.74.908-.194.009-.48.131-.675.14-.097.004-.297-.097-.399-.202.093-.114.083-.332.176-.446.676-.139.944-.698 1.105-1.472-.005-.109.184-.227.379-.235 0 0 .195-.009.2.1l.023.547zm148.072-15.883c.681-.03 1.167-.051 1.667.256.102.105.209.319.214.428.005.11-.083.333-.175.446.004.11-.093.114-.19.118a3.235 3.235 0 01-1.973-.571s-.102-.105-.107-.215c-.005-.109-.01-.218.087-.222.19-.118.38-.236.477-.24zM88.756 48.91c-.37.455-.856.476-1.245.493-.194.008-.491-.088-.598-.303a.774.774 0 01-.028-.655c.082-.333.267-.56.55-.791.379-.236.773-.143.986.285l.335.971zm109.739-5.776c-.394-.093-.783-.076-1.172-.059-.097.004-.301-.206-.306-.315-.005-.11.078-.442.175-.446.667-.357 1.348-.387 2.033-.307.194-.009.296.096.398.201.102.105.209.32.214.429.005.11-.083.332-.273.45-.296-.097-.685-.08-1.069.047zm-98.93-7.728c-.005-.109-.01-.218.088-.223.092-.113.282-.23.379-.235.676-.14 1.084.281.918.945.005.11-.18.337-.277.341-.574.244-1.08-.172-1.108-.828zm69.721 1.446c.024.547.047 1.093-.021 1.753.005.11-.185.227-.282.232-.098.004-.394-.093-.399-.202l-.655-1.614c-.005-.11.083-.332.278-.34.287-.123.676-.14 1.079.171zm-42.84-1.634c-.102-.105-.297-.096-.399-.201-.102-.105-.204-.21-.213-.43-.005-.108.082-.331.175-.445.379-.235.856-.475 1.347-.387.194-.009.296.096.398.202.102.105.209.319.117.433-.365.563-.842.803-1.425.828zm2.883 5.788c-.681.03-1.172-.058-1.658-.037 0 0-.102-.105-.107-.214-.005-.11-.009-.219.088-.223.657-.576 1.337-.606 2.047.02.097-.004.102.105.106.214.005.11-.087.223-.087.223l-.389.017zM68.566 48.37c-.297-.096-.491-.088-.69-.189a.44.44 0 01-.126-.651c.37-.454.754-.58 1.166-.051.103.105.21.32.117.433-.088.223-.278.34-.467.458zm-.478-4.25c-.097.004-.297-.096-.394-.092-.097.004-.2-.101-.204-.21-.005-.11-.014-.328.078-.442.375-.345.754-.58 1.245-.492.097-.005.302.206.306.315.005.11.015.328-.078.441-.175.446-.564.463-.953.48zm64.233-5.98l.486-.022c.102.105.301.206.306.316.005.109.015.328-.078.441-.273.45-.754.58-1.245.492-.199-.1-.306-.315-.51-.525-.107-.214.078-.441.268-.56.389-.016.676-.138.773-.142zm-49.36 9.711c.03.656-.53 1.228-1.22 1.04-.098.003-.103-.106-.2-.102-.213-.428.138-1.32.522-1.446.38-.236.782.075.899.508zm78.114-.453c-.578.134-1.069.046-1.482-.483-.102-.105-.112-.324-.019-.438.092-.113.185-.227.379-.235.487-.021.89.29 1.293.6.102.106.112.324.116.434-.097.004-.189.117-.287.122zm53.244-3.31c-.584.025-.87.147-1.162.16-.097.004-.195.008-.199-.101l-.306-.315c-.107-.215.17-.555.267-.56.676-.139 1.172.059 1.77.361.097-.004.102.105.107.215.004.109.009.218-.088.222-.297-.096-.486.022-.389.017zm9.096.807c-.2-.101-.491-.088-.788-.185-.097.005-.111-.324-.116-.433 0 0 .092-.113.087-.223.38-.235.769-.252 1.07-.046.102.105.204.21.214.428.004.11-.088.223-.181.337.005.11-.092.113-.286.122zM25.384 54.526c-1.05.484-1.625.728-2.106.858-.097.005-.2-.1-.2-.1-.004-.11-.014-.328.079-.442.365-.564 1.055-.375 2.227-.316zM109.71 35.73c-.097.004-.292.013-.394-.092-.106-.215-.31-.425-.32-.644-.01-.218.175-.445.467-.458.292-.013.588.084.88.071a.44.44 0 01.126.652c-.282.231-.467.458-.759.47zM18.982 52.943c-.078.442-.258.778-.638 1.014-.097.004-.291.013-.393-.092-.2-.101-.214-.43-.029-.656.282-.232.472-.35.754-.58.097-.005.195-.01.2.1 0 0 .004.11.106.215zM225.65 40.306c.097-.004.092-.113.19-.118.578-.134 1.162-.16 1.672.365.097-.004.106.215.106.215l-.277.34c-.486.022-.982-.176-1.482-.482-.107-.215-.112-.324-.209-.32zm-83.914 5.964l.389-.017c.195-.009.297.096.306.315.005.11.01.218-.087.223-.278.34-.662.467-1.056.374-.097.005-.301-.206-.306-.315-.004-.11.083-.332.181-.336.286-.122.481-.13.573-.244zm-66.7-3.659l.01.219c-.18.336-.555.68-.944.698-.194.008-.49-.088-.598-.303-.204-.21-.028-.655.356-.782.384-.126.666-.357 1.065-.156.01.219.014.328.112.324zm93.873 3.458l.185-.227c.282-.231.578-.135.88.071.102.105.204.21.31.425-.092.113-.185.227-.379.235-.292.013-.588-.084-.889-.29-.098.005-.102-.105-.107-.214zm-56.969-1.674c-.102-.105-.296-.097-.398-.202-.199-.1-.218-.538-.029-.656.375-.345.856-.475 1.26-.164.199.1.204.21.116.433-.175.445-.56.572-.949.589zm90.049-6.013c.005.11.019.438-.078.442-.282.231-.569.353-.856.475-.097.005-.296-.096-.398-.201l-.01-.219c.176-.446.458-.677.847-.694.287-.122.393.092.495.197zm-77.947 10.96c-.092.114-.083.332-.175.446-.282.231-.671.248-1.07.047-.097.004-.102-.106-.107-.215-.004-.11-.009-.218.088-.223a1.23 1.23 0 011.06-.265c.199.1.204.21.204.21zm-18-15.094c.189-.117.277-.34.467-.458s.486-.021.593.193c.102.105.014.328-.078.442-.181.336-.467.458-.769.252 0 0-.009-.218-.213-.429zm-8.546 5.083c-.195.008-.394-.093-.593-.194-.098.005-.107-.214-.117-.432l.093-.114c.393.092.88.071 1.273.163 0 0 .102.105.107.215.005.11-.092.113-.19.118-.092.113-.287.122-.573.244zm110.669-2.314c-.292.013-.588-.083-.88-.07-.195.008-.297-.097-.306-.316-.005-.109.092-.113.19-.117l1.069-.047c.097-.005.204.21.306.315-.092.114-.287.122-.379.236zm-58.849-2.358c-.176.446-.652.685-.958.37-.102-.105-.112-.324-.117-.433 0 0 .088-.223.185-.227.195-.008.482-.13.676-.139.102.105.209.32.214.429zm51.833 2.336c-.194.009-.393-.092-.593-.193-.097.004-.106-.214-.213-.429 0 0 .092-.113.088-.222.379-.236.671-.249 1.069-.047.102.105.209.32.214.429.005.109-.185.227-.278.34-.092.114-.092.114-.287.122zm-22.504 11.168c.01.218-.268.559-.472.349a4.422 4.422 0 01-.709-.626l-.01-.219c-.004-.11.093-.113.19-.118.297.097.588.084.885.18.005.11.014.329.116.434zm-89.29-5.63c-.205-.21-.496-.197-.603-.411-.102-.105-.112-.324-.02-.438.093-.113.283-.23.38-.235.195-.009.394.092.593.193.102.105.209.32.116.433-.087.223-.277.34-.467.458zm45.58 4.143c-.103-.105-.302-.206-.409-.42-.111-.324.166-.664.458-.677.195-.009.399.202.505.416.015.328-.166.664-.554.681zm.621-10.321c.092-.114.282-.232.379-.236.194-.008.398.202.598.303.102.105.014.328.019.437 0 0-.093.113-.19.118-.194.008-.394-.093-.593-.194-.194.009-.204-.21-.213-.428zm54.144 6.178c-.102-.105-.296-.097-.398-.202-.107-.214.078-.441.37-.454.291-.013.495.197.505.416.005.11-.185.227-.477.24zM11.356 56.78c.092-.114.18-.337.277-.34.195-.01.486-.022.686.079.097-.004.106.214.213.429 0 0-.092.113-.088.222-.282.232-.573.245-.875.039-.199-.101-.209-.32-.213-.43zm221.559-6.279c-.005-.109.087-.223.087-.223.098-.004.287-.122.389-.017.297.097.408.42.321.644.004.109-.093.113-.19.117-.292.013-.598-.302-.607-.52zm-13.508-10.361c-.291.012-.398-.202-.505-.416l-.009-.219c.087-.223.379-.236.578-.135.2.101.408.42.223.648 0 0-.189.117-.287.122zm-159.88 4.242c-.293.013-.501-.306-.414-.53.18-.336.467-.458.764-.361.097-.004.296.097.398.202l.01.218c-.175.446-.467.459-.759.471zm98.186-4.834c-.102-.105-.302-.206-.306-.315-.107-.215.073-.551.272-.45.097-.005.297.096.302.206.204.21.023.546-.268.559zm-13.769-5.203c.189-.118.379-.236.574-.244.097-.005.301.206.306.315.004.11-.083.332-.176.446-.19.117-.486.02-.593-.194-.102-.105-.107-.214-.111-.323zm80.022 7.567c-.092.113-.083.332-.18.336-.097.005-.199-.1-.398-.201.092-.114.083-.333.18-.337.102.105.204.21.398.202zM63.361 51.882a.956.956 0 00-.491-.088c-.097.004-.102-.105-.107-.214-.005-.11-.01-.22.088-.223.092-.114.282-.232.38-.236.194-.008.592.193.5.307-.088.223-.278.34-.37.454zm-24.416-5.833l-.583.025c-.195.009-.297-.096-.306-.315-.005-.11.092-.114.19-.118l.874-.038c.098-.004.102.105.205.21-.098.004-.19.118-.38.236zm153.513 1.62c-.2-.1-.302-.206-.506-.416 0 0 .083-.332.181-.336.282-.232.685.08.602.411.005.11-.088.223-.277.341zM122.42 41.2l-.37.455c-.287.122-.588-.084-.704-.517-.01-.219.17-.555.365-.564.291-.013.593.193.709.626zm-25.116.44l.01.218c-.18.337-.57.354-.681.03l-.01-.218c.088-.223.477-.24.681-.03zm-21.051-.176c.092-.114.282-.232.38-.236.097-.004.203.21.208.32.005.109-.088.223-.175.445l-.306-.315c-.098.004-.102-.105-.107-.214zm-23.349 2.99c.083-.332.467-.458.764-.361.097-.005.2.1.204.21.005.109.014.328-.078.441-.185.227-.574.244-.783-.075 0 0-.005-.11-.107-.215zm-17.218 9.513c-.102-.105-.296-.096-.398-.201-.098.004-.107-.215-.107-.215l.277-.34c.098-.005.292-.013.394.092.102.105.107.214.209.32-.19.117-.282.23-.375.344zm55.769-5.72c-.107-.214-.306-.315-.316-.534-.004-.11.185-.227.278-.34l.194-.009c.097-.004.297.097.399.202.102.105.019.437-.268.559.004.11-.093.113-.287.122zm-3.333-2.702c.204.21.31.425.413.53.106.214-.176.445-.37.454-.195.008-.496-.197-.408-.42-.005-.11.185-.227.365-.564zm-56.543-5.307c-.004-.109.088-.223.088-.223.195-.008.39-.017.588.084.098-.004.2.101.107.215-.092.113-.083.332-.18.336-.389.017-.69-.189-.603-.412zm92.91 3.72c.005.109-.088.222-.088.222-.102-.105-.296-.096-.301-.206-.107-.214.083-.332.185-.227.092-.113.199.101.204.21zm-30.467-8.308c-.102-.105-.199-.1-.398-.201.092-.114.185-.227.282-.232.292-.012.593.193.403.311.005.11-.19.118-.287.122zm117.76 1.649c.083-.333.365-.564.759-.471.199.1.403.31.315.533-.083.333-.365.564-.666.358-.195.008-.306-.315-.408-.42zm-77.757-2.52c-.102-.104-.301-.205-.306-.314-.106-.215.083-.332.278-.341.097-.004.301.206.306.315.009.219-.083.332-.278.34zm107.911 5.912c-.199-.1-.301-.206-.505-.416 0 0-.107-.214-.01-.218.093-.114.181-.337.283-.232.199.101.398.202.5.307 0 0 .107.214.01.219.009.218-.088.222-.278.34zm-123.805-4.012c-.199-.101-.403-.311-.219-.539.093-.113.185-.227.38-.235.194-.009.408.42.315.534-.189.117-.286.122-.476.24zm-34.708-.566c-.389.017-.588-.084-.495-.197.19-.118.287-.122.481-.13.195-.01.297.096.204.21.005.109-.092.113-.19.117zm-32.439 2.292c-.005-.109.088-.222.088-.222l.583-.026c.097-.004.102.105.2.101.102.105.014.328-.18.336-.385.127-.681.03-.69-.189zM37.993 51.019c-.102-.105-.204-.21-.209-.32-.005-.108.185-.226.282-.23.098-.005.297.096.399.201.005.11-.273.45-.472.35zM81.937 40.01c-.102-.105-.296-.097-.398-.202-.107-.214.078-.441.365-.563l.195-.009c.102.105.3.206.305.316.005.109-.184.227-.277.34.005.11-.097.004-.19.118zm78.353 5.012c.097-.005.092-.114.189-.118l.195-.009c.199.101.204.21.112.324-.093.114-.292.013-.394-.092.005.109 0 0-.102-.105zm-79.706-2.544c-.195.009-.297-.096-.306-.315-.015-.328.268-.56.467-.458.097-.005.102.105.204.21.014.328-.17.555-.365.563zM52.657 49.94l-.57.353c-.189.118-.286.122-.296-.096-.005-.11.083-.332.176-.446.19-.118.384-.126.578-.135.005.11.107.215.112.324zm83.099-8.994c.088-.223.078-.442.175-.446.19-.118.394.092.501.307.107.214.014.328-.18.336-.098.004-.297-.097-.496-.197zm-57.62 10.181c-.005-.109.093-.113.088-.223.088-.222.18-.336.287-.122.102.106.111.324.019.438-.093.113-.19.117-.384.126l-.01-.219zm27.226-5.678c-.005-.11-.01-.22.087-.223.185-.227.491.088.501.306.005.11-.093.114-.19.118-.199-.1-.301-.206-.398-.201zm-77.454-4.504c-.092.114-.185.227-.282.232-.097.004-.204-.21-.306-.316.093-.113.185-.227.282-.231.098-.004.204.21.306.315zm96.18-6.17l-.408-.42c.092-.114.185-.228.282-.232.097-.004.297.097.301.206l-.175.446zm-17.827 4.502c-.097.004-.199-.101-.199-.101s-.01-.219.088-.223c.097-.005.287-.122.389-.017.199.1.106.214-.083.332l-.195.008zm17.227-2.614c-.102-.105-.296-.097-.301-.206-.107-.215-.014-.328.18-.337.098-.004.2.101.302.206.004.11-.088.223-.181.337zm-12.272 2.288l-.102-.105c.097-.005.199.1.296.096l-.194.009zm-55.971 3.32c-.102-.106-.297-.097-.399-.202-.102-.105-.111-.324.078-.442.287-.122.584-.025.496.198.01.218-.083.332-.175.445zM42.64 45.886c-.102-.105-.296-.096-.398-.201-.2-.101.083-.333.472-.35.194-.008.296.097.306.316-.093.113-.287.122-.38.235zm17.857.644c-.19.118-.486.022-.593-.193-.005-.11-.015-.328.078-.441.088-.223.38-.236.583-.026a.44.44 0 01-.068.66zm9.288 2.99c-.102-.105-.296-.097-.398-.202-.103-.105-.112-.324.078-.441.19-.118.486-.022.495.197.01.219-.18.336-.175.446zm-1.621 3.027c-.292.013-.394-.092-.408-.42-.01-.218.082-.332.277-.34.194-.009.496.197.505.416-.087.222-.282.23-.374.344zM187.536 37.59c-.009-.219.18-.337.282-.232.098-.004.2.101.2.101.106.214.014.328-.181.337-.194.008-.296-.097-.301-.206zm32.758.54c-.19.118-.389.018-.588-.083 0 0-.107-.214-.01-.219.088-.223.375-.345.579-.135.102.105.107.215.209.32 0 0-.093.113-.19.118zm-171.916.826c-.195.009-.496-.197-.408-.42-.005-.11.092-.114.185-.227.287-.122.486-.021.495.197.01.219-.18.337-.272.45zm156.345-2.664c.292-.013.501.306.413.53-.092.113-.185.226-.379.235-.292.013-.496-.198-.413-.53.097-.004.287-.122.379-.235zM46.028 40.92l-.014-.328c.185-.227.379-.236.578-.135.102.105.112.324.015.328-.19.118-.385.126-.579.135zm47.359 4.722c-.102-.105-.301-.206-.306-.315-.005-.11.083-.333.175-.446.19-.118.491.088.5.307-.087.222-.276.34-.369.454zM82.543 42.72c-.102-.105-.297-.096-.399-.201l-.01-.219c.089-.223.376-.345.575-.244.199.1.204.21.116.433 0 0-.19.118-.282.231zm5.11-5.698c-.103-.106-.2-.101-.205-.21-.014-.329.079-.442.263-.67.098-.003.195-.008.195-.008.2.101.301.206.116.433l-.37.455zm120.39 6.133c.01.218-.083.332-.282.231-.097.004-.102-.105-.199-.1-.107-.215-.015-.329.18-.337.097-.005.204.21.301.206zm-63.06 3.848c-.097.004-.102-.105-.199-.1l.093-.114c.097-.005.097-.005.199.1 0 0 .005.11-.093.114zm89.205-7.509c-.098.005-.297-.096-.394-.092-.005-.11.088-.223.088-.223.097-.004.291-.013.393.093-.092.113-.087.222-.087.222zm-83.21-4.69c-.194.009-.296-.096-.209-.32-.004-.108.093-.113.19-.117.097-.004.199.1.301.206.005.11-.092.114-.087.223l-.195.008zm-17.766 8.113l.102.105c.004.11-.093.114-.093.114l-.102-.105s.097-.004.093-.114zm49.851 1.547c-.102-.105-.2-.1-.302-.206-.004-.109.088-.222.088-.222l.389-.017c.009.218-.083.332-.175.445zm-69.799-7.685l.195-.008c.106.214.111.324-.083.332l-.102-.105c-.098.004-.102-.105-.01-.219zm-57.423 7.983c-.292.013-.496-.197-.408-.42.092-.114.282-.231.379-.236.097-.004.204.21.306.316l-.277.34zm42.935-7.35c-.2-.1-.302-.206-.01-.219 0 0 .102.105.2.101 0 0-.093.114-.19.118zM40.4 54.856c.102.105.204.21.21.32-.093.113-.283.23-.385.125-.195.009-.301-.206-.209-.32.093-.113.287-.121.384-.125zm-1.054-6.306c.092-.114.082-.332.18-.336.097-.005.199.1.301.205-.093.114-.083.333-.18.337-.097.004-.204-.21-.301-.206zM78.96 36.526c-.097.004-.097.004-.2-.1l-.009-.22c.19-.117.292-.012.301.206.098-.004.005.11-.092.114zM21.04 57.672c.01.219-.083.332-.283.232-.097.004-.199-.101-.199-.101-.107-.215-.014-.328.18-.337.19-.117.292-.012.302.206zm62.284-12.685c-.097.004-.287.122-.384.126-.098.005-.204-.21-.21-.32-.009-.218.186-.226.288-.121.194-.009.301.206.306.315zm1.31 3.228c-.097.004-.292.013-.394-.092-.102-.105-.111-.324.083-.332.097-.004.292-.013.394.092.102.105.014.328-.083.332zM167.129 41l.009.22-.102-.106.093-.114zM45.482 55.181c-.005-.109-.102-.105-.107-.214.097-.004.092-.114.19-.118.004.11.101.105.106.215-.097.004-.194.008-.19.117zm117.958-9.42c-.098.003-.195.008-.2-.102-.106-.214-.014-.328.185-.227 0 0 .102.105.107.215l-.092.113zm23.14 1.18c.01.218-.083.331-.189.117 0 0-.005-.11.087-.223l.102.105zm17.37-3.826c-.195.009-.297-.096-.306-.315 0 0 .092-.113.189-.118.195-.008.297.097.209.32.097-.004 0 0-.092.113zm-129.895-7.36l.093-.114.01.218-.103-.105zm101.562 5.531l-.01-.219c.093-.113.19-.117.297.097l-.093.114c.005.109-.092.113-.194.008zM19.092 55.458c-.01-.22.083-.333.282-.232 0 0 .102.105.107.215.01.218-.083.332-.282.23 0 0-.005-.108-.107-.213zm212.252-16.386c-.102-.105-.199-.1-.102-.105-.01-.219.185-.227.282-.231.097-.005.102.105.102.105.01.218-.083.332-.282.23zM112.95 51.907c-.097.004-.092.114-.189.118-.005-.11-.102-.105-.107-.215 0 0 .092-.113.19-.117.102.105.106.214.106.214zm105.908.195l.19-.118.009.218-.199-.1zm-77.95-9.191l-.093.114-.004-.11.097-.004zM25.282 47.74c.005.108.102.104.107.214-.097.004-.092.113-.19.117l-.102-.105c.088-.222.088-.222.185-.227zm196.67-9.573c-.102-.105-.204-.21-.209-.32.097-.004.092-.113.19-.117.194-.009.296.096.208.319 0 0-.092.114-.189.118zm-88.526-1.501l-.01-.219.2.101-.19.118zm24.278 7.153c-.004-.109-.102-.105-.106-.214-.005-.11.092-.114.189-.118.195-.008.199.101.112.324.005.11-.097.004-.195.008zm-15.598-9.175l-.195.009c-.102-.106-.107-.215.088-.223l.102.105c.097-.005 0 0 .005.11zm-87.69 4.267c-.2-.101-.204-.21-.116-.433.092-.114.19-.118.38-.236.004.11.11.324.115.433.01.219-.184.227-.379.236zm-31.259 9.25l-.102-.105.093-.114c.194-.009.194-.009.204.21l-.195.009zm124.748-1.176c-.097.004-.102-.105-.102-.105s-.009-.219.088-.223l.389-.017.107.215c-.195.008-.389.016-.482.13zm-51.366-2.795c.004.11.004.11-.088.223l-.194.008c-.103-.105-.01-.218.087-.222.088-.223.19-.118.195-.009zm115.435-4.711c-.102-.105-.301-.206-.398-.202.092-.114.18-.337.277-.34.098-.005.297.096.399.2.107.215-.083.333-.278.342zm-62.493 1.195c-.097.004-.097.004-.199-.1l-.01-.22c.19-.117.195-.008.199.101.102.105.005.11.01.219zM8.17 52.978l-.005-.11.199.101-.194.008zm81.567-8.38l-.093.113-.005-.11.098-.004zM21.11 48.14l.092-.113.005.11-.097.003zm99.331 3.549c-.092.113-.189.117-.199-.101 0 0 .093-.114.195-.009l.004.11zm-63.157-7.318l.092-.114.005.11-.097.004zm117.003 4.419l-.189.118-.01-.219.199.101zM78.831 33.575l.093-.114.004.11-.097.004zm1.095 16.16l.19-.118.01.219-.2-.101zm57.972.097l-.093.114-.005-.11.098-.004zm21.539-8.716l-.009-.218s.092-.114.194-.009c.102.105.107.215.015.328-.102-.105-.102-.105-.2-.1zm-85.867 5.83c-.093.114-.19.118-.2-.1 0 0 .098-.005.19-.118l.01.218zm14.99-9.197l-.091.114-.005-.11.097-.004zm63.561 3.14l-.005-.11.102.105-.097.004zM35.625 45.864l.199.1-.19.119-.01-.219zm6.941 7.253l.195-.008-.088.223-.107-.215zm1.09-12.97l.2.1-.19.119-.01-.219zm176.553 7.186l-.01-.219.199.1-.189.119zm-116.258-.729l-.102-.105.092-.113.01.218zm14.838-6.014c.19-.118.287-.122.296.097 0 0-.092.113-.189.118 0 0-.005-.11-.107-.215zm78.217 4.142c-.097.004-.097.004-.199-.101l-.005-.11c.097-.004.097-.004.199.101l.005.11zM2.47 42.932c.686.08 1.357-.169 1.921-.632.092-.113.18-.336.078-.44-.005-.11-.204-.211-.301-.207-.195.009-.482.13-.676.14-.579.134-1.255.273-1.828.517-.098.004-.185.227-.278.34l.306.316.778-.034z"/><path fill="#262626" d="M8.968 51.19c.292-.012.579-.134.773-.143.098-.004.093-.113.088-.223l-.01-.218c-.3-.206-.602-.412-1-.614-.399-.201-.584.026-.852.585-.175.446.029.656.418.639l.583-.026zM17.244 44.368c-.491-.088-.977-.067-1.371-.16-.89-.29-1.45.283-2.009.855 0 0 .01.218.107.214.097-.004.2.101.2.101.768-.253 1.439-.5 2.217-.535.384-.126.569-.353.856-.475zM16.02 43.107c-.005-.11.092-.114.087-.223-.097.004-.102-.105-.199-.1-.097.004-.19.117-.282.23.102.106.2.101.394.093zM74.923 33.307c.102.105.204.21.3.206.098-.004.19-.118.283-.231-.102-.105-.204-.21-.301-.206-.097.004-.19.118-.282.231zM4.58 48.863l.195-.008c.092-.114.082-.332-.02-.438l-.194.009c-.092.113-.083.332.02.437zM9.404 47.776c-.19.118-.278.341-.467.459 0 0 .111.324.209.32.097-.005.286-.123.282-.232-.005-.11-.112-.324-.024-.547zM175.984 31.852c-.097.004-.092.113-.189.117.102.106.097-.004.189-.117zM11.924 45.257l-.005-.11c.098-.003.195-.008.005.11zM6.78 52.381l-.102-.105s.004.11.102.105z"/><path fill="#262626" d="M11.92 45.148l-.195.008s.102.105.194-.008zM112.568 31.992l-.01-.218.01.218zM148.418 31.96l.093-.113s-.097.004-.093.113zM104.229 39.584l-.097.005c-.102-.106 0 0 .097-.005zM60.189 48.407c-.2-.101-.399-.202-.584.025l.103.105c.097-.004.286-.122.48-.13zM63.29 50.242l1.458-.063c-.214-.43-.515-.635-.895-.4-.19.118-.374.346-.564.463z"/></svg>